<svg width="90" height="90" viewBox="0 0 90 90" fill="none" xmlns="http://www.w3.org/2000/svg">
<g clip-path="url(#clip0)">
<path d="M65.4487 90C64.8187 90 64.1737 89.9213 63.5362 89.7525L5.54993 74.2238C1.57494 73.1288 -0.795065 69.0113 0.247435 65.0363L7.56368 37.7663C7.83368 36.765 8.86118 36.1838 9.85868 36.4388C10.8599 36.705 11.4524 37.7363 11.1862 38.7338L3.87368 65.9963C3.35243 67.9838 4.54493 70.0538 6.53618 70.605L64.4999 86.1263C66.4912 86.6513 68.5462 85.4663 69.0637 83.4863L71.9924 72.6338C72.2624 71.6325 73.2899 71.0363 74.2912 71.31C75.2924 71.58 75.8812 72.6113 75.6149 73.6088L72.6899 84.4463C71.8087 87.7838 68.7712 90 65.4487 90V90Z" fill="#069203"/>
<path d="M82.5 67.5H22.5C18.3638 67.5 15 64.1363 15 60V15C15 10.8638 18.3638 7.5 22.5 7.5H82.5C86.6363 7.5 90 10.8638 90 15V60C90 64.1363 86.6363 67.5 82.5 67.5ZM22.5 11.25C20.4338 11.25 18.75 12.9338 18.75 15V60C18.75 62.0663 20.4338 63.75 22.5 63.75H82.5C84.5663 63.75 86.25 62.0663 86.25 60V15C86.25 12.9338 84.5663 11.25 82.5 11.25H22.5Z" fill="#069203"/>
<path d="M33.75 33.75C29.6138 33.75 26.25 30.3862 26.25 26.25C26.25 22.1137 29.6138 18.75 33.75 18.75C37.8863 18.75 41.25 22.1137 41.25 26.25C41.25 30.3862 37.8863 33.75 33.75 33.75ZM33.75 22.5C31.6838 22.5 30 24.1837 30 26.25C30 28.3162 31.6838 30 33.75 30C35.8163 30 37.5 28.3162 37.5 26.25C37.5 24.1837 35.8163 22.5 33.75 22.5Z" fill="#069203"/>
<path d="M17.1374 63.4875C16.6574 63.4875 16.1774 63.3037 15.8099 62.94C15.0787 62.2087 15.0787 61.02 15.8099 60.2887L33.5212 42.5775C35.6437 40.455 39.3524 40.455 41.4749 42.5775L46.7474 47.85L61.3424 30.3375C62.4036 29.0662 63.9636 28.3275 65.6249 28.3125H65.6661C67.3086 28.3125 68.8649 29.025 69.9374 30.2737L89.5499 53.1562C90.2249 53.94 90.1349 55.125 89.3474 55.8C88.5636 56.475 87.3824 56.3887 86.7036 55.5975L67.0911 32.715C66.7274 32.295 66.2249 32.0625 65.6661 32.0625C65.2761 32.0287 64.5899 32.2987 64.2262 32.7375L48.3149 51.8287C47.9774 52.2337 47.4862 52.4775 46.9574 52.5C46.4249 52.5375 45.9187 52.3275 45.5474 51.9525L38.8237 45.2287C38.1149 44.5237 36.8812 44.5237 36.1724 45.2287L18.4612 62.94C18.0974 63.3037 17.6174 63.4875 17.1374 63.4875V63.4875Z" fill="#069203"/>
</g>
<defs>
<clipPath id="clip0">
<rect width="90" height="90" fill="white"/>
</clipPath>
</defs>
</svg>
