<svg width="90" height="90" viewBox="0 0 90 90" fill="none" xmlns="http://www.w3.org/2000/svg">
<path d="M29.4982 32.3764H59.3547C59.6715 32.3764 59.9752 32.252 60.1992 32.0308C60.4232 31.8095 60.549 31.5093 60.549 31.1964C60.549 30.8834 60.4232 30.5833 60.1992 30.362C59.9752 30.1407 59.6715 30.0164 59.3547 30.0164H29.4982C29.1815 30.0164 28.8777 30.1407 28.6537 30.362C28.4298 30.5833 28.304 30.8834 28.304 31.1964C28.304 31.5093 28.4298 31.8095 28.6537 32.0308C28.8777 32.252 29.1815 32.3764 29.4982 32.3764V32.3764Z" fill="#ED9F08"/>
<path d="M17.4389 30.9779L14.7855 33.4845L13.7092 32.4211C13.5989 32.3091 13.4671 32.2198 13.3216 32.1586C13.1761 32.0973 13.0197 32.0652 12.8615 32.0641C12.7033 32.0631 12.5465 32.0931 12.4001 32.1524C12.2537 32.2118 12.1208 32.2993 12.0089 32.4098C11.8971 32.5203 11.8086 32.6517 11.7485 32.7963C11.6885 32.9409 11.6581 33.0959 11.6592 33.2522C11.6603 33.4085 11.6928 33.563 11.7548 33.7068C11.8169 33.8506 11.9072 33.9808 12.0206 34.0898L13.9224 35.9692C14.1431 36.1872 14.4414 36.3112 14.7535 36.3147C15.0656 36.3181 15.3666 36.2008 15.5922 35.9877L19.0896 32.6836C19.204 32.5768 19.296 32.4487 19.3601 32.3066C19.4242 32.1646 19.4593 32.0114 19.4633 31.8559C19.4673 31.7003 19.4402 31.5456 19.3834 31.4005C19.3267 31.2554 19.2414 31.1228 19.1326 31.0104C19.0238 30.898 18.8936 30.8079 18.7494 30.7454C18.6053 30.6828 18.45 30.6491 18.2926 30.6461C18.1352 30.6431 17.9787 30.6708 17.8322 30.7278C17.6857 30.7847 17.552 30.8698 17.4389 30.9779V30.9779Z" fill="#ED9F08"/>
<path d="M15.5652 25.4734C13.962 25.4734 12.3949 25.9431 11.062 26.8231C9.72906 27.7031 8.69017 28.9539 8.07669 30.4173C7.46322 31.8807 7.30271 33.491 7.61548 35.0446C7.92825 36.5981 8.70023 38.0251 9.83382 39.1452C10.9674 40.2652 12.4117 41.0279 13.984 41.3369C15.5563 41.6459 17.186 41.4873 18.6671 40.8811C20.1482 40.2749 21.4141 39.2484 22.3047 37.9313C23.1953 36.6143 23.6706 35.0659 23.6706 33.4819C23.6682 31.3586 22.8134 29.323 21.2939 27.8216C19.7743 26.3202 17.7141 25.4757 15.5652 25.4734V25.4734ZM15.5652 39.1306C14.4345 39.1306 13.3292 38.7993 12.389 38.1786C11.4489 37.5579 10.7161 36.6757 10.2834 35.6435C9.85071 34.6114 9.7375 33.4756 9.95809 32.3799C10.1787 31.2841 10.7232 30.2776 11.5227 29.4877C12.3222 28.6977 13.3409 28.1597 14.4498 27.9417C15.5588 27.7238 16.7083 27.8356 17.7529 28.2632C18.7976 28.6907 19.6904 29.4147 20.3186 30.3436C20.9468 31.2726 21.2821 32.3647 21.2821 33.4819C21.2806 34.9796 20.6778 36.4156 19.6061 37.4748C18.5343 38.5339 17.081 39.1297 15.5652 39.1314V39.1306Z" fill="#ED9F08"/>
<path d="M29.4982 52.0431H59.3547C59.6715 52.0431 59.9752 51.9188 60.1992 51.6975C60.4232 51.4762 60.549 51.1761 60.549 50.8631C60.549 50.5502 60.4232 50.25 60.1992 50.0287C59.9752 49.8074 59.6715 49.6831 59.3547 49.6831H29.4982C29.1815 49.6831 28.8777 49.8074 28.6537 50.0287C28.4298 50.25 28.304 50.5502 28.304 50.8631C28.304 51.1761 28.4298 51.4762 28.6537 51.6975C28.8777 51.9188 29.1815 52.0431 29.4982 52.0431V52.0431Z" fill="#ED9F08"/>
<path d="M17.4389 50.6447L14.7855 53.1512L13.7092 52.0878C13.5989 51.9758 13.4671 51.8866 13.3216 51.8253C13.1761 51.764 13.0197 51.732 12.8615 51.7309C12.7033 51.7298 12.5465 51.7599 12.4001 51.8192C12.2537 51.8785 12.1208 51.966 12.0089 52.0765C11.8971 52.1871 11.8086 52.3185 11.7485 52.4631C11.6885 52.6077 11.6581 52.7627 11.6592 52.919C11.6603 53.0753 11.6928 53.2298 11.7548 53.3736C11.8169 53.5174 11.9072 53.6476 12.0206 53.7566L13.9224 55.6359C14.1431 55.854 14.4414 55.978 14.7535 55.9814C15.0656 55.9849 15.3666 55.8675 15.5922 55.6544L19.0896 52.3504C19.204 52.2436 19.296 52.1154 19.3601 51.9734C19.4242 51.8313 19.4593 51.6781 19.4633 51.5226C19.4673 51.3671 19.4402 51.2123 19.3834 51.0672C19.3267 50.9221 19.2414 50.7896 19.1326 50.6771C19.0238 50.5647 18.8936 50.4746 18.7494 50.4121C18.6053 50.3496 18.45 50.3159 18.2926 50.3128C18.1352 50.3098 17.9787 50.3376 17.8322 50.3945C17.6857 50.4515 17.552 50.5365 17.4389 50.6447V50.6447Z" fill="#ED9F08"/>
<path d="M15.5652 45.1401C13.962 45.1401 12.3949 45.6098 11.062 46.4899C9.72906 47.3699 8.69017 48.6207 8.07669 50.0841C7.46322 51.5475 7.30271 53.1578 7.61548 54.7113C7.92825 56.2649 8.70023 57.6919 9.83382 58.8119C10.9674 59.9319 12.4117 60.6947 13.984 61.0037C15.5563 61.3127 17.186 61.154 18.6671 60.5479C20.1482 59.9417 21.4141 58.9151 22.3047 57.5981C23.1953 56.281 23.6706 54.7326 23.6706 53.1486C23.6682 51.0254 22.8134 48.9897 21.2939 47.4883C19.7743 45.987 17.7141 45.1425 15.5652 45.1401V45.1401ZM15.5652 58.7973C14.4345 58.7973 13.3292 58.466 12.389 57.8454C11.4489 57.2247 10.7161 56.3425 10.2834 55.3103C9.85071 54.2781 9.7375 53.1424 9.95809 52.0466C10.1787 50.9509 10.7232 49.9444 11.5227 49.1544C12.3222 48.3644 13.3409 47.8264 14.4498 47.6085C15.5588 47.3905 16.7083 47.5024 17.7529 47.9299C18.7976 48.3575 19.6904 49.0815 20.3186 50.0104C20.9468 50.9393 21.2821 52.0314 21.2821 53.1486C21.2806 54.6464 20.6778 56.0824 19.6061 57.1415C18.5343 58.2007 17.081 58.7964 15.5652 58.7981V58.7973Z" fill="#ED9F08"/>
<path d="M17.4389 70.3114L14.7855 72.818L13.7092 71.7546C13.5989 71.6426 13.4671 71.5533 13.3216 71.4921C13.1761 71.4308 13.0197 71.3987 12.8615 71.3976C12.7033 71.3966 12.5465 71.4266 12.4001 71.4859C12.2537 71.5453 12.1208 71.6327 12.0089 71.7433C11.8971 71.8538 11.8086 71.9852 11.7485 72.1298C11.6885 72.2744 11.6581 72.4294 11.6592 72.5857C11.6603 72.742 11.6928 72.8965 11.7548 73.0403C11.8169 73.1841 11.9072 73.3143 12.0206 73.4233L13.9224 75.3027C14.1431 75.5207 14.4414 75.6447 14.7535 75.6482C15.0656 75.6517 15.3666 75.5343 15.5922 75.3212L19.0896 72.0171C19.204 71.9103 19.296 71.7822 19.3601 71.6401C19.4242 71.4981 19.4593 71.3449 19.4633 71.1893C19.4673 71.0338 19.4402 70.8791 19.3834 70.734C19.3267 70.5889 19.2414 70.4563 19.1326 70.3439C19.0238 70.2314 18.8936 70.1414 18.7494 70.0789C18.6053 70.0163 18.45 69.9826 18.2926 69.9796C18.1352 69.9766 17.9787 70.0043 17.8322 70.0613C17.6857 70.1182 17.552 70.2033 17.4389 70.3114V70.3114Z" fill="#ED9F08"/>
<path d="M15.5652 64.8069C13.962 64.8069 12.3949 65.2766 11.062 66.1566C9.72906 67.0366 8.69017 68.2874 8.07669 69.7508C7.46322 71.2142 7.30271 72.8245 7.61548 74.3781C7.92825 75.9316 8.70023 77.3586 9.83382 78.4787C10.9674 79.5987 12.4117 80.3614 13.984 80.6704C15.5563 80.9794 17.186 80.8208 18.6671 80.2146C20.1482 79.6084 21.4141 78.5819 22.3047 77.2648C23.1953 75.9478 23.6706 74.3994 23.6706 72.8154C23.6682 70.6921 22.8134 68.6565 21.2939 67.1551C19.7743 65.6537 17.7141 64.8092 15.5652 64.8069V64.8069ZM15.5652 78.4641C14.4345 78.4641 13.3292 78.1328 12.389 77.5121C11.4489 76.8914 10.7161 76.0092 10.2834 74.9771C9.85071 73.9449 9.7375 72.8091 9.95809 71.7134C10.1787 70.6176 10.7232 69.6112 11.5227 68.8212C12.3222 68.0312 13.3409 67.4932 14.4498 67.2752C15.5588 67.0573 16.7083 67.1691 17.7529 67.5967C18.7976 68.0242 19.6904 68.7482 20.3186 69.6771C20.9468 70.6061 21.2821 71.6982 21.2821 72.8154C21.2806 74.3131 20.6778 75.7491 19.6061 76.8083C18.5343 77.8674 17.081 78.4632 15.5652 78.4649V78.4641Z" fill="#ED9F08"/>
<path d="M29.4982 36.3097H45.4217C45.7384 36.3097 46.0422 36.1854 46.2662 35.9641C46.4901 35.7428 46.616 35.4427 46.616 35.1297C46.616 34.8168 46.4901 34.5166 46.2662 34.2953C46.0422 34.074 45.7384 33.9497 45.4217 33.9497H29.4982C29.1815 33.9497 28.8777 34.074 28.6537 34.2953C28.4298 34.5166 28.304 34.8168 28.304 35.1297C28.304 35.4427 28.4298 35.7428 28.6537 35.9641C28.8777 36.1854 29.1815 36.3097 29.4982 36.3097V36.3097Z" fill="#ED9F08"/>
<path d="M29.4982 55.9765H45.4217C45.7384 55.9765 46.0422 55.8521 46.2662 55.6309C46.4901 55.4096 46.616 55.1094 46.616 54.7965C46.616 54.4835 46.4901 54.1834 46.2662 53.9621C46.0422 53.7408 45.7384 53.6165 45.4217 53.6165H29.4982C29.1815 53.6165 28.8777 53.7408 28.6537 53.9621C28.4298 54.1834 28.304 54.4835 28.304 54.7965C28.304 55.1094 28.4298 55.4096 28.6537 55.6309C28.8777 55.8521 29.1815 55.9765 29.4982 55.9765V55.9765Z" fill="#ED9F08"/>
<path d="M5.77214 13.1227C5.4554 13.1227 5.15164 13.247 4.92767 13.4683C4.7037 13.6896 4.57788 13.9897 4.57788 14.3027V15.5417C4.57788 15.8547 4.7037 16.1548 4.92767 16.3761C5.15164 16.5974 5.4554 16.7217 5.77214 16.7217C6.08888 16.7217 6.39264 16.5974 6.61661 16.3761C6.84058 16.1548 6.9664 15.8547 6.9664 15.5417V14.3027C6.9664 13.9897 6.84058 13.6896 6.61661 13.4683C6.39264 13.247 6.08888 13.1227 5.77214 13.1227V13.1227Z" fill="#ED9F08"/>
<path d="M5.77214 18.0966C5.4554 18.0966 5.15164 18.2209 4.92767 18.4422C4.7037 18.6635 4.57788 18.9636 4.57788 19.2766V30.6833C4.57788 30.9962 4.7037 31.2964 4.92767 31.5177C5.15164 31.739 5.4554 31.8633 5.77214 31.8633C6.08888 31.8633 6.39264 31.739 6.61661 31.5177C6.84058 31.2964 6.9664 30.9962 6.9664 30.6833V19.2766C6.9664 19.1216 6.93551 18.9682 6.87549 18.825C6.81547 18.6818 6.72751 18.5517 6.61661 18.4422C6.50571 18.3326 6.37406 18.2457 6.22916 18.1864C6.08427 18.1271 5.92897 18.0966 5.77214 18.0966V18.0966Z" fill="#ED9F08"/>
<path d="M85.0454 47.2641C84.2465 47.0985 83.4222 47.0911 82.6203 47.2424C81.8184 47.3936 81.0548 47.7005 80.3737 48.1452L68.0728 56.1272V11.8492C68.0728 7.94537 64.8258 4.84294 60.8746 4.84294H53.3436V1.18001C53.3436 0.867049 53.2178 0.566909 52.9938 0.345615C52.7699 0.124321 52.4661 0 52.1494 0C51.8326 0 51.5289 0.124321 51.3049 0.345615C51.0809 0.566909 50.9551 0.867049 50.9551 1.18001V4.84294H40.8039V1.18001C40.8039 0.867049 40.6781 0.566909 40.4541 0.345615C40.2301 0.124321 39.9264 0 39.6096 0C39.2929 0 38.9891 0.124321 38.7652 0.345615C38.5412 0.566909 38.4154 0.867049 38.4154 1.18001V4.84294H28.4632V1.18001C28.4632 0.867049 28.3374 0.566909 28.1134 0.345615C27.8894 0.124321 27.5857 0 27.2689 0C26.9522 0 26.6484 0.124321 26.4245 0.345615C26.2005 0.566909 26.0747 0.867049 26.0747 1.18001V4.84294H15.9235V1.18001C15.9235 0.867049 15.7976 0.566909 15.5737 0.345615C15.3497 0.124321 15.046 0 14.7292 0C14.4125 0 14.1087 0.124321 13.8847 0.345615C13.6608 0.566909 13.535 0.867049 13.535 1.18001V4.84294H7.13292C6.19789 4.83634 5.27079 5.01276 4.40511 5.36201C3.53943 5.71126 2.75232 6.22643 2.08918 6.87779C1.42605 7.52915 0.900018 8.30381 0.541444 9.15708C0.18287 10.0103 -0.00114843 10.9253 5.39252e-06 11.8492V82.8462C5.39252e-06 86.7503 3.18171 90 7.13292 90H60.8746C64.8258 90 68.0728 86.7503 68.0728 82.8462V70.817L87.1981 58.4073C88.2253 57.7406 89.0292 56.7878 89.5084 55.6696C89.9875 54.5514 90.1202 53.3179 89.8898 52.1251C89.6594 50.9323 89.0762 49.8338 88.2139 48.9686C87.3516 48.1033 86.2489 47.5102 85.0454 47.2641ZM52.0819 12.2325C52.4996 12.2325 52.9079 12.3549 53.2552 12.5842C53.6025 12.8135 53.8731 13.1394 54.033 13.5206C54.1928 13.9019 54.2346 14.3215 54.1532 14.7263C54.0717 15.131 53.8705 15.5028 53.5752 15.7946C53.2798 16.0865 52.9035 16.2852 52.4939 16.3657C52.0842 16.4462 51.6596 16.4049 51.2737 16.247C50.8878 16.089 50.558 15.8216 50.3259 15.4784C50.0939 15.1353 49.97 14.7319 49.97 14.3192C49.9706 13.7659 50.1933 13.2355 50.5892 12.8443C50.9851 12.4531 51.522 12.2331 52.0819 12.2325V12.2325ZM39.6371 12.2325C40.0548 12.2326 40.4631 12.355 40.8103 12.5843C41.1576 12.8136 41.4282 13.1395 41.5881 13.5208C41.7479 13.9021 41.7897 14.3216 41.7081 14.7264C41.6266 15.1311 41.4255 15.5029 41.1301 15.7947C40.8348 16.0865 40.4585 16.2852 40.0488 16.3657C39.6392 16.4462 39.2146 16.4049 38.8287 16.247C38.4428 16.089 38.113 15.8216 37.8809 15.4784C37.6489 15.1353 37.525 14.7319 37.525 14.3192C37.5257 13.7659 37.7484 13.2355 38.1444 12.8443C38.5403 12.4531 39.0772 12.2331 39.6371 12.2325V12.2325ZM27.1919 12.2325C27.6096 12.2326 28.0178 12.3551 28.365 12.5845C28.7122 12.8138 28.9828 13.1398 29.1426 13.5211C29.3023 13.9023 29.3441 14.3219 29.2625 14.7266C29.181 15.1313 28.9798 15.5031 28.6844 15.7949C28.389 16.0866 28.0127 16.2853 27.6031 16.3658C27.1935 16.4462 26.7689 16.4049 26.383 16.2469C25.9972 16.089 25.6674 15.8215 25.4353 15.4784C25.2033 15.1353 25.0795 14.7318 25.0795 14.3192C25.0801 13.7658 25.3029 13.2354 25.6989 12.8442C26.095 12.453 26.6319 12.233 27.1919 12.2325ZM14.7471 12.2325C15.1648 12.2326 15.5731 12.355 15.9204 12.5843C16.2676 12.8136 16.5383 13.1395 16.6981 13.5208C16.8579 13.9021 16.8997 14.3216 16.8182 14.7264C16.7367 15.1311 16.5355 15.5029 16.2402 15.7947C15.9448 16.0865 15.5685 16.2852 15.1589 16.3657C14.7492 16.4462 14.3246 16.4049 13.9387 16.247C13.5528 16.089 13.223 15.8216 12.991 15.4784C12.7589 15.1353 12.6351 14.7319 12.6351 14.3192C12.6357 13.7659 12.8584 13.2355 13.2544 12.8443C13.6503 12.4531 14.1872 12.2331 14.7471 12.2325V12.2325ZM65.6843 82.8462C65.6784 84.1086 65.171 85.3183 64.2715 86.2148C63.372 87.1114 62.1522 87.6231 60.8746 87.64H7.13292C4.49838 87.64 2.38853 85.4489 2.38853 82.8462V11.8492C2.38704 11.2351 2.50905 10.6269 2.74747 10.0598C2.98589 9.49272 3.33598 8.97809 3.77739 8.54581C4.2188 8.11353 4.74274 7.77221 5.31878 7.54169C5.89481 7.31116 6.51147 7.19602 7.13292 7.20295H13.535V10.0326C11.7436 10.551 10.2378 12.2758 10.2378 14.32C10.2378 14.9038 10.3542 15.4819 10.5803 16.0212C10.8064 16.5606 11.1378 17.0507 11.5556 17.4635C11.9734 17.8763 12.4694 18.2038 13.0153 18.4272C13.5612 18.6506 14.1463 18.7656 14.7372 18.7656C15.328 18.7656 15.9131 18.6506 16.459 18.4272C17.0049 18.2038 17.5009 17.8763 17.9187 17.4635C18.3365 17.0507 18.6679 16.5606 18.8941 16.0212C19.1202 15.4819 19.2365 14.9038 19.2365 14.32C19.2507 13.3418 18.9318 12.3873 18.3309 11.6098C17.7301 10.8323 16.8822 10.2768 15.9235 10.0326V7.20295H26.0747V10.0326C25.1126 10.2753 24.2606 10.8295 23.6545 11.6065C23.0484 12.3836 22.7232 13.3389 22.7308 14.32C22.7308 15.5005 23.2054 16.6328 24.0503 17.4676C24.8952 18.3023 26.0411 18.7713 27.2359 18.7713C28.4307 18.7713 29.5766 18.3023 30.4215 17.4676C31.2664 16.6328 31.741 15.5005 31.741 14.32C31.7241 13.3546 31.3976 12.4194 30.8086 11.649C30.2196 10.8786 29.3984 10.3126 28.4632 10.0326V7.20295H38.4154V10.0326C36.624 10.551 35.123 12.2758 35.123 14.32C35.123 15.4988 35.5969 16.6293 36.4405 17.4628C37.2841 18.2964 38.4283 18.7646 39.6214 18.7646C40.8144 18.7646 41.9586 18.2964 42.8022 17.4628C43.6458 16.6293 44.1198 15.4988 44.1198 14.32C44.1332 13.3416 43.8137 12.387 43.2124 11.6096C42.6111 10.8321 41.7629 10.2767 40.8039 10.0326V7.20295H50.9551V10.0326C49.9934 10.2754 49.1418 10.8296 48.5364 11.6068C47.931 12.384 47.6067 13.3393 47.6154 14.32C47.6154 15.5004 48.0899 16.6325 48.9347 17.4671C49.7795 18.3018 50.9252 18.7707 52.1199 18.7707C53.3146 18.7707 54.4603 18.3018 55.3051 17.4671C56.1499 16.6325 56.6245 15.5004 56.6245 14.32C56.6245 12.2766 55.135 10.5518 53.3436 10.0326V7.20295H60.8746C63.5086 7.20295 65.6843 9.24672 65.6843 11.8492V57.6769L61.1985 60.5876C61.0607 60.6771 60.9431 60.7938 60.8532 60.9303C60.7633 61.0669 60.703 61.2204 60.6761 61.3811C60.6492 61.5419 60.6563 61.7064 60.6969 61.8643C60.7375 62.0222 60.8107 62.17 60.912 62.2986V62.2986C61.0965 62.5324 61.3632 62.6891 61.6592 62.7374C61.9552 62.7858 62.2588 62.7223 62.5096 62.5596L80.2678 51.037L81.7123 53.2094L51.6255 72.7326L50.1806 70.56L55.8335 66.8927C55.9646 66.8077 56.0774 66.6979 56.1656 66.5698C56.2538 66.4416 56.3155 66.2976 56.3474 66.1458C56.3792 65.9941 56.3804 65.8376 56.3511 65.6854C56.3217 65.5332 56.2623 65.3882 56.1762 65.2586C56.0901 65.1291 55.979 65.0176 55.8493 64.9305C55.7196 64.8433 55.5738 64.7823 55.4203 64.7509C55.2667 64.7194 55.1084 64.7182 54.9543 64.7472C54.8002 64.7762 54.6535 64.8349 54.5224 64.92L47.8765 69.2319C47.8644 69.24 47.8532 69.25 47.8409 69.2585C47.8106 69.2797 47.7812 69.3009 47.7521 69.3249C47.7425 69.3328 47.7342 69.3418 47.7252 69.3501H29.4982C29.1815 69.3501 28.8777 69.4744 28.6538 69.6957C28.4298 69.917 28.304 70.2172 28.304 70.5301C28.304 70.8431 28.4298 71.1432 28.6538 71.3645C28.8777 71.5858 29.1815 71.7101 29.4982 71.7101H46.3791L45.5334 73.289C45.4965 73.2856 45.4595 73.2835 45.4217 73.2835H29.4982C29.1815 73.2835 28.8777 73.4078 28.6538 73.6291C28.4298 73.8504 28.304 74.1505 28.304 74.4635C28.304 74.7764 28.4298 75.0766 28.6538 75.2979C28.8777 75.5191 29.1815 75.6435 29.4982 75.6435H44.2722L42.8915 78.2208C42.7951 78.4006 42.7475 78.6019 42.7532 78.8052C42.7588 79.0086 42.8176 79.207 42.9237 79.3813C43.0299 79.5556 43.1798 79.6998 43.359 79.7999C43.5382 79.9001 43.7405 79.9527 43.9464 79.9528C43.9569 79.9528 43.9675 79.9528 43.9778 79.9528L54.0707 79.6915C54.0952 79.6915 54.1193 79.6868 54.1436 79.6848C54.1679 79.6828 54.1955 79.6814 54.2214 79.6775C54.253 79.6728 54.2837 79.6647 54.3144 79.6578C54.337 79.6525 54.3599 79.6488 54.3826 79.6421C54.4348 79.6267 54.4858 79.6077 54.5353 79.5853C54.5474 79.58 54.5588 79.5725 54.5707 79.5656C54.6094 79.547 54.647 79.5264 54.6834 79.5039C54.6874 79.5013 54.6915 79.4999 54.6951 79.4974L65.6843 72.367V82.8462ZM51.8629 77.3873L45.9579 77.5401L48.6374 72.5373L51.8629 77.3873ZM54.3818 76.8774L54.2901 76.7397L52.9366 74.7054L83.0234 55.1832L84.468 57.3553L54.3818 76.8774ZM86.4304 56.007L82.299 49.7945C82.8081 49.5829 83.3572 49.482 83.9091 49.4984C84.4611 49.5148 85.003 49.6482 85.4983 49.8896C85.7851 50.0261 86.0513 50.2014 86.2891 50.4106C86.6915 50.756 87.0167 51.1805 87.2439 51.657C87.4711 52.1334 87.5953 52.6515 87.6086 53.178C87.6219 53.7046 87.524 54.2281 87.3212 54.7152C87.1183 55.2022 86.8149 55.6422 86.4304 56.007V56.007Z" fill="#ED9F08"/>
</svg>
