<svg width="99" height="90" viewBox="0 0 99 90" fill="none" xmlns="http://www.w3.org/2000/svg">
<path fill-rule="evenodd" clip-rule="evenodd" d="M30.7184 41.4169H13.999C11.4253 41.4169 9.33228 39.095 9.33228 36.2398V5.17711C9.33228 2.32194 11.4253 0 13.999 0H51.333C53.9067 0 55.9997 2.32194 55.9997 5.17711V20.7085C56.0001 20.7085 56.0006 20.7085 56.001 20.7085C70.6061 20.7085 82.4459 33.8431 82.4459 50.0455C82.4459 66.2478 70.6061 79.3825 56.001 79.3825C42.5673 79.3825 31.4732 68.2704 29.7799 53.8798L3.45229 46.0581C0.978913 45.3023 -0.495779 42.4601 0.152899 39.7162L4.70531 20.8922C4.87331 20.201 5.51266 19.7998 6.13333 19.9758C6.75634 20.1596 7.12502 20.8715 6.95935 21.56L2.40927 40.3789C2.08493 41.7508 2.82694 43.1797 4.06596 43.5602L29.5741 51.1376C29.5621 50.7752 29.5561 50.4111 29.5561 50.0455C29.5561 47.0425 29.9628 44.145 30.7184 41.4169ZM31.558 38.8284H13.999C13.1819 38.8284 12.4609 38.3589 12.0439 37.6505L22.5068 26.0434C22.9478 25.5568 23.7154 25.5568 24.1565 26.0434L28.3402 30.6847C28.5712 30.9436 28.8862 31.0885 29.2175 31.0626C29.5465 31.0471 29.8522 30.8789 30.0622 30.5993L39.9627 17.4209C40.189 17.1181 40.6161 16.9317 40.8587 16.955C41.2064 16.955 41.5191 17.1155 41.7454 17.4054L45.981 22.8876C39.465 25.8494 34.2514 31.6133 31.558 38.8284ZM48.3368 21.9595L43.5164 15.7203C42.8491 14.8583 41.8807 14.3665 40.8587 14.3665H40.8331C39.7994 14.3768 38.8287 14.8868 38.1683 15.7643L29.0869 27.8528L25.8061 24.2133C24.4855 22.7482 22.1778 22.7482 20.8571 24.2133L11.6657 34.4099V5.17711C11.6657 3.75082 12.7133 2.58856 13.999 2.58856H51.333C52.6187 2.58856 53.6664 3.75082 53.6664 5.17711V20.8212C51.8296 20.9995 50.0466 21.386 48.3368 21.9595ZM16.3324 12.9427C16.3324 15.7979 18.4255 18.1199 20.9992 18.1199C23.5729 18.1199 25.6659 15.7979 25.6659 12.9427C25.6659 10.0876 23.5729 7.76562 20.9992 7.76562C18.4255 7.76562 16.3324 10.0876 16.3324 12.9427ZM18.6658 12.9427C18.6658 11.5164 19.7135 10.3542 20.9992 10.3542C22.2849 10.3542 23.3326 11.5164 23.3326 12.9427C23.3326 14.369 22.2849 15.5313 20.9992 15.5313C19.7135 15.5313 18.6658 14.369 18.6658 12.9427Z" fill="#7C00F8"/>
<rect width="7.03701" height="32.4698" rx="3.5185" transform="matrix(0.582063 -0.813143 0.750361 0.661029 70.54 68.5365)" fill="#7C00F8"/>
<rect width="7.03701" height="32.4698" rx="3.5185" transform="matrix(0.582063 -0.813143 0.750361 0.661029 70.54 68.5365)" stroke="black"/>
<ellipse cx="55.7196" cy="49.945" rx="23.6251" ry="26.2088" fill="white"/>
<path d="M67.6881 63.2967H43.974C42.3392 63.2967 41.0098 61.8218 41.0098 60.0082V40.2776C41.0098 38.464 42.3392 36.9891 43.974 36.9891H67.6881C69.3229 36.9891 70.6524 38.464 70.6524 40.2776V60.0082C70.6524 61.8218 69.3229 63.2967 67.6881 63.2967ZM43.974 38.6334C43.1574 38.6334 42.4919 39.3716 42.4919 40.2776V60.0082C42.4919 60.9142 43.1574 61.6525 43.974 61.6525H67.6881C68.5048 61.6525 69.1702 60.9142 69.1702 60.0082V40.2776C69.1702 39.3716 68.5048 38.6334 67.6881 38.6334H43.974Z" fill="#7C00F8"/>
<path d="M48.4203 48.4986C46.7855 48.4986 45.4561 47.0238 45.4561 45.2102C45.4561 43.3966 46.7855 41.9218 48.4203 41.9218C50.0551 41.9218 51.3846 43.3966 51.3846 45.2102C51.3846 47.0238 50.0551 48.4986 48.4203 48.4986ZM48.4203 43.566C47.6037 43.566 46.9382 44.3042 46.9382 45.2102C46.9382 46.1162 47.6037 46.8544 48.4203 46.8544C49.237 46.8544 49.9024 46.1162 49.9024 45.2102C49.9024 44.3042 49.237 43.566 48.4203 43.566Z" fill="#7C00F8"/>
<path d="M41.8545 61.5372C41.6648 61.5372 41.475 61.4566 41.3298 61.2971C41.0408 60.9765 41.0408 60.4553 41.3298 60.1346L48.3299 52.369C49.1688 51.4384 50.6346 51.4384 51.4735 52.369L53.5574 54.6808L59.3258 47.0023C59.7453 46.4449 60.3618 46.121 61.0184 46.1144H61.0347C61.6839 46.1144 62.299 46.4268 62.7229 46.9743L70.4744 57.0073C70.7412 57.351 70.7056 57.8706 70.3944 58.1665C70.0846 58.4625 69.6177 58.4247 69.3495 58.0777L61.5979 48.0447C61.4542 47.8605 61.2556 47.7586 61.0347 47.7586C60.8806 47.7438 60.6093 47.8622 60.4656 48.0546L54.1769 56.4253C54.0435 56.6029 53.8494 56.7097 53.6404 56.7196C53.4299 56.736 53.2298 56.644 53.0831 56.4795L50.4256 53.5315C50.1455 53.2223 49.6579 53.2223 49.3778 53.5315L42.3777 61.2971C42.2339 61.4566 42.0442 61.5372 41.8545 61.5372V61.5372Z" fill="#7C00F8"/>
</svg>
