<svg width="90" height="90" viewBox="0 0 90 90" fill="none" xmlns="http://www.w3.org/2000/svg">
<g clip-path="url(#clip0)">
<path d="M12.6213 14.48H39.1866C39.9149 14.48 40.505 13.8897 40.505 13.1616C40.505 12.4335 39.9149 11.8433 39.1866 11.8433H12.6213C11.8931 11.8433 11.303 12.4335 11.303 13.1616C11.303 13.8897 11.8931 14.48 12.6213 14.48V14.48Z" fill="#FC2270"/>
<path d="M12.6213 23.1592H39.1866C39.9149 23.1592 40.505 22.5689 40.505 21.8408C40.505 21.1127 39.9149 20.5225 39.1866 20.5225H12.6213C11.8931 20.5225 11.303 21.1127 11.303 21.8408C11.303 22.5689 11.8931 23.1592 12.6213 23.1592V23.1592Z" fill="#FC2270"/>
<path d="M63.2421 36.5442H13.676C12.9478 36.5442 12.3577 37.1345 12.3577 37.8625C12.3577 38.5906 12.9478 39.1809 13.676 39.1809H63.2423C63.9706 39.1809 64.5607 38.5906 64.5607 37.8625C64.5607 37.1345 63.9704 36.5442 63.2421 36.5442Z" fill="#FC2270"/>
<path d="M63.7416 47.9221H14.1755C13.4473 47.9221 12.8572 48.5124 12.8572 49.2405C12.8572 49.9686 13.4473 50.5588 14.1755 50.5588H63.7418C64.4701 50.5588 65.0602 49.9686 65.0602 49.2405C65.0602 48.5124 64.4699 47.9221 63.7416 47.9221Z" fill="#FC2270"/>
<path d="M33.3748 58.3771H13.676C12.9478 58.3771 12.3577 58.9673 12.3577 59.6954C12.3577 60.4235 12.9478 61.0138 13.676 61.0138H33.3748C34.103 61.0138 34.6931 60.4235 34.6931 59.6954C34.6931 58.9673 34.103 58.3771 33.3748 58.3771Z" fill="#FC2270"/>
<path d="M33.3748 69.2935H13.676C12.9478 69.2935 12.3577 69.8837 12.3577 70.6118C12.3577 71.3399 12.9478 71.9302 13.676 71.9302H33.3748C34.103 71.9302 34.6931 71.3399 34.6931 70.6118C34.6931 69.8837 34.103 69.2935 33.3748 69.2935Z" fill="#FC2270"/>
<path d="M82.3643 54.9357H42.7572C40.0785 54.9357 37.8992 57.1148 37.8992 59.7936V85.1029C37.8992 87.7816 40.0783 89.9608 42.7572 89.9608H82.3641C85.0428 89.9608 87.2222 87.7816 87.2222 85.1029V59.7937C87.2222 57.115 85.043 54.9357 82.3643 54.9357V54.9357ZM82.2335 57.5724L65.2597 71.5734C63.6959 72.8634 61.4257 72.8632 59.862 71.5734L42.888 57.5724H82.2335ZM42.7572 87.3242C42.6523 87.3242 42.5491 87.3169 42.448 87.3028L53.6108 76.2667C54.1287 75.7548 54.1336 74.9201 53.6217 74.4024C53.1095 73.8845 52.2747 73.88 51.7574 74.3917L40.5645 85.4574C40.5459 85.3419 40.5362 85.2236 40.5362 85.1029V59.7937C40.5362 59.5638 40.5714 59.342 40.6366 59.1331L58.1845 73.6075C59.4526 74.6536 61.0067 75.1763 62.5611 75.1763C64.1152 75.1763 65.67 74.6532 66.9377 73.6075L84.4854 59.1331C84.5506 59.342 84.5856 59.5638 84.5856 59.7937V85.1031C84.5856 85.2236 84.5759 85.3421 84.5573 85.4576L73.3578 74.3853C72.8403 73.8733 72.0055 73.878 71.4934 74.3961C70.9816 74.9139 70.9863 75.7485 71.5043 76.2604L82.6738 87.303C82.5727 87.317 82.4696 87.3244 82.3646 87.3244H42.7572V87.3242Z" fill="#FC2270"/>
<path d="M32.915 87.3633H8.74965C6.91062 87.3633 5.41437 85.8672 5.41437 84.0282V5.97182C5.41455 4.13279 6.91062 2.63672 8.74965 2.63672H50.9811V18.3248C50.9811 20.9906 53.1497 23.1592 55.8154 23.1592H71.5036V50.12C71.5036 50.8481 72.0937 51.4383 72.8219 51.4383C73.5502 51.4383 74.1403 50.8481 74.1403 50.12V21.8408C74.1403 21.4912 74.0014 21.1558 73.7543 20.9087L53.2318 0.386191C52.9845 0.138867 52.6493 0 52.2995 0H8.74965C5.45674 0 2.77783 2.67891 2.77783 5.97182V84.0282C2.77783 87.3211 5.45674 90 8.74982 90H32.915C33.6433 90 34.2334 89.4097 34.2334 88.6816C34.2334 87.9536 33.6433 87.3633 32.915 87.3633V87.3633ZM53.6178 18.3248V4.50105L69.6392 20.5225H55.8154C54.6038 20.5225 53.6178 19.5367 53.6178 18.3248V18.3248Z" fill="#FC2270"/>
</g>
<defs>
<clipPath id="clip0">
<rect width="90" height="90" fill="white"/>
</clipPath>
</defs>
</svg>
