<svg width="54" height="54" viewBox="0 0 54 54" fill="none" xmlns="http://www.w3.org/2000/svg">
<path d="M16.1218 26.8725C16.4963 26.8726 16.8001 26.5684 16.8003 26.1939C16.8001 25.8194 16.4963 25.5155 16.1218 25.5154C15.7471 25.5154 15.443 25.8195 15.4432 26.1939C15.4431 26.5685 15.7471 26.8725 16.1218 26.8725Z" fill="white"/>
<path d="M10.9013 29.9981L10.9419 37.8601C10.9499 39.5581 12.3457 40.9909 14.0992 40.999C15.834 41.0072 17.2335 39.6188 17.2236 37.8928L17.1996 33.2089L19.5553 33.2211C19.989 33.223 20.3388 32.8756 20.3365 32.4446L20.3259 30.4145C20.4434 30.4553 21.2166 30.722 34.852 35.425C36.415 36.2189 38.2691 35.105 38.2596 33.3532L38.2326 28.165L40.9329 26.8333C41.1983 26.7022 41.365 26.4331 41.3635 26.1373L41.3473 23.0151C41.3457 22.7193 41.1751 22.4481 40.9093 22.3147L38.1954 20.9553L38.1657 15.1954C38.1614 14.361 37.7265 13.6062 37.0027 13.1764C36.9941 13.1711 36.9856 13.1661 36.9768 13.1611C36.2723 12.7543 35.4329 12.7316 34.7158 13.0987L19.3304 19.1701L11.6301 19.1303C8.60174 19.1142 6.14517 21.5466 6.16185 24.5659C6.17607 27.3261 8.2496 29.6058 10.9013 29.9981ZM15.6533 37.8851C15.6582 38.7466 14.9595 39.4418 14.0905 39.4376C13.2185 39.4336 12.5164 38.7214 12.5122 37.8685L12.4721 30.0622L15.613 30.0784C15.6594 39.113 15.6523 37.7403 15.6533 37.8851ZM17.1916 31.6476L17.1835 30.0865L18.754 30.0945L18.7621 31.6557L17.1916 31.6476ZM39.7793 23.4893L39.7905 25.6469L38.2237 26.4194L38.2045 22.7005L39.7793 23.4893ZM35.43 14.4963C35.7839 14.3061 36.0919 14.4432 36.2079 14.5144C36.3235 14.5829 36.593 14.7862 36.5951 15.1869L36.6891 33.3451C36.6923 33.9363 36.0574 34.3107 35.5319 34.0242C35.4377 33.9726 35.3852 33.9644 35.1216 33.8708L35.022 14.6634C35.3273 14.5413 35.3624 14.5328 35.43 14.4963ZM33.4546 15.2819L33.5482 33.3282L20.3174 28.7643L20.2743 20.4831L33.4546 15.2819ZM7.73232 24.574C7.72848 23.889 7.90583 23.2164 8.24539 22.6282C8.93941 21.4262 10.2395 20.6842 11.6382 20.6915L18.7053 20.7279L18.7459 28.5334L11.6786 28.4973C9.51368 28.4857 7.74355 26.7259 7.73232 24.574Z" fill="white"/>
<path d="M13.7265 26.0743C13.7494 25.6288 13.4283 25.2861 13.0093 25.3091L11.4918 25.3921C11.0735 25.4152 10.7517 25.0717 10.7745 24.6269C10.7974 24.1815 10.4762 23.8387 10.0573 23.8618C9.6383 23.8848 9.27982 24.2646 9.25698 24.71C9.18854 26.0381 10.148 27.0743 11.4087 27.0056L12.9263 26.9225C13.3452 26.8995 13.7035 26.52 13.7265 26.0743Z" fill="white"/>
<path d="M51.0688 22.9808L45.9395 22.877C45.4953 22.8682 45.1309 23.219 45.1261 23.6608C45.1209 24.102 45.4763 24.4681 45.9215 24.4771L51.0505 24.5808C51.4949 24.5897 51.8591 24.2388 51.8639 23.797C51.8691 23.3551 51.513 22.9896 51.0688 22.9808Z" fill="white"/>
<path d="M46.3257 29.8491L44.4656 27.7064C44.2088 27.4105 43.7376 27.4651 43.4131 27.8287C43.0886 28.1923 43.034 28.7266 43.2909 29.0225L45.1512 31.1654C45.4095 31.4633 45.8813 31.4037 46.2036 31.0429C46.5281 30.6794 46.5828 30.1447 46.3257 29.8491Z" fill="white"/>
<path d="M45.5674 16.4637L43.2004 18.7108C42.8736 19.0212 42.8966 19.547 43.2516 19.8861C43.6066 20.2244 44.1589 20.2481 44.4862 19.9376L46.8529 17.6903C47.1796 17.3799 47.1568 16.8538 46.8017 16.515C46.4468 16.1765 45.8941 16.1533 45.5674 16.4637Z" fill="white"/>
</svg>
