<svg width="31" height="34" viewBox="0 0 31 34" fill="none" xmlns="http://www.w3.org/2000/svg">
<path d="M3.77309 22.0709H2.69501C1.20659 22.0709 0 20.8643 0 19.3759C0 18.4829 0.723979 17.7589 1.61701 17.7589H3.77302V22.0709H3.77309Z" fill="#C00606"/>
<path d="M24.2553 0.51062H4.31203L3.75684 1.58863V33.4069H29.1064L30.1844 32.8511V6.43972L24.2553 0.51062Z" fill="#F4F4F4"/>
<path d="M4.31189 31.234V0.51062C3.71656 0.51062 3.23389 0.993229 3.23389 1.58863V32.8511C3.23389 33.4465 3.71656 33.9291 4.31189 33.9291H29.1062C29.7015 33.9291 30.1842 33.4464 30.1842 32.8511H5.9289C5.03581 32.8511 4.31189 32.1271 4.31189 31.234Z" fill="#898989"/>
<path d="M30.1845 6.34716C30.1845 6.06128 30.0709 5.78708 29.8687 5.58487L25.11 0.826333C24.9078 0.624191 24.6336 0.51062 24.3477 0.51062H24.2554V5.90071C24.2554 6.19835 24.4967 6.43972 24.7944 6.43972H30.1845V6.34716Z" fill="#898989"/>
<path d="M18.3262 20.9929H1.61695C1.42793 20.9929 1.24641 20.9605 1.07775 20.9008L0.558594 21.767V28.5769C0.558594 29.47 1.28257 30.1939 2.1756 30.1939H18.3262L19.4042 29.617V22.0709C19.4042 21.4755 18.9216 20.9929 18.3262 20.9929Z" fill="#F82D00"/>
<path d="M1.07801 20.9009C0.45141 20.6781 0 20.079 0 19.3759V29.078C0 29.971 0.723979 30.695 1.61701 30.695H18.3262C18.9216 30.695 19.4042 30.2123 19.4042 29.617H2.69501C1.80199 29.617 1.07801 28.893 1.07801 28V20.9009Z" fill="#F82D00"/>
<path d="M15.3826 25.2645H14.3246V24.2428H15.5205C15.8185 24.2428 16.0595 24.0014 16.0595 23.7038C16.0595 23.4062 15.8184 23.1648 15.5205 23.1648H13.7856C13.4876 23.1648 13.2466 23.4062 13.2466 23.7038V27.9843C13.2466 28.2819 13.4877 28.5233 13.7856 28.5233C14.0835 28.5233 14.3246 28.2819 14.3246 27.9843V26.3425H15.3826C15.6806 26.3425 15.9216 26.1012 15.9216 25.8035C15.9216 25.5059 15.6805 25.2645 15.3826 25.2645Z" fill="white"/>
<path d="M5.49704 23.149H4.29639C4.15319 23.149 4.01586 23.2061 3.91476 23.3074C3.81417 23.4085 3.75772 23.5454 3.75772 23.688H3.75732V28C3.75732 28.2977 3.99843 28.5391 4.29633 28.5391C4.59422 28.5391 4.83533 28.2977 4.83533 28V26.6632C5.07716 26.6619 5.343 26.6607 5.49698 26.6607C6.47812 26.6607 7.27664 25.873 7.27664 24.905C7.2767 23.9366 6.47819 23.149 5.49704 23.149ZM5.49704 25.5826C5.34437 25.5826 5.0812 25.5837 4.84068 25.585C4.83964 25.3363 4.83703 24.227 4.83703 24.227H5.49711C5.8777 24.227 6.19876 24.5375 6.19876 24.9049C6.19876 25.2723 5.87763 25.5826 5.49704 25.5826Z" fill="white"/>
<path d="M10.0168 23.2127H8.83198C8.68877 23.2127 8.55144 23.2696 8.45034 23.3709C8.3493 23.4722 8.29245 23.6096 8.29297 23.7528L8.29611 25.8393C8.29611 26.4212 8.30139 27.9382 8.30139 27.9382C8.30192 28.0812 8.35929 28.2183 8.46091 28.3191C8.56143 28.4191 8.6983 28.4754 8.84046 28.4754H8.84255C8.84255 28.4754 9.72109 28.472 10.0611 28.4662C11.327 28.4438 12.2461 27.3411 12.2461 25.8441C12.246 24.2702 11.3501 23.2127 10.0168 23.2127ZM10.0421 27.3881C9.88785 27.3908 9.62096 27.3932 9.37783 27.3945C9.37626 26.901 9.37418 26.1951 9.37418 25.8393L9.37209 24.2907H10.0169C11.1128 24.2907 11.1681 25.5845 11.1681 25.844C11.168 26.6028 10.82 27.3745 10.0421 27.3881Z" fill="white"/>
<path d="M11.3025 18.7448C10.8867 18.7448 10.5108 18.5284 10.2466 18.1202C9.85396 17.5144 9.95715 16.8283 10.5293 16.2376C11.1062 15.6418 12.2868 15.0812 13.7076 14.6235C14.1508 13.7882 14.6019 12.8104 15.0235 11.7295C15.2725 11.0907 15.4735 10.5148 15.6346 9.9998C14.9246 8.69804 14.5024 7.4861 14.6145 6.69914C14.7287 5.90062 15.3251 5.4511 16.2116 5.50005C16.4747 5.51428 17.1027 5.65168 17.2543 6.61859C17.3701 7.35791 17.1753 8.55301 16.7848 9.91109C17.5238 11.1578 18.5371 12.4932 19.5282 13.5181C21.0263 13.4268 22.2959 13.536 22.9343 13.9212C23.4344 14.2229 23.6307 14.7147 23.4596 15.2366C23.1796 16.0897 22.5032 16.4804 21.6484 16.2812C20.9288 16.1133 20.0372 15.4851 19.1329 14.6129C17.6785 14.7408 15.9667 15.0369 14.465 15.4785C13.5686 17.0874 12.5995 18.3399 11.7858 18.651C11.6215 18.714 11.4594 18.7448 11.3025 18.7448ZM11.1509 17.5344C11.241 17.6729 11.2904 17.67 11.3136 17.6673C11.6568 17.6323 12.2284 17.0399 12.8811 16.0384C12.4495 16.2235 12.0626 16.424 11.7373 16.6393C10.9215 17.1796 11.0946 17.4465 11.1509 17.5344ZM20.6467 14.5417C21.1073 14.9017 21.5353 15.1478 21.8932 15.2315C22.1727 15.2966 22.3164 15.2634 22.4353 14.901C22.2764 14.6598 21.6 14.5441 20.6467 14.5417ZM16.3657 11.2181C16.0146 12.2178 15.5851 13.2528 15.1161 14.2229C16.1262 13.9692 17.1911 13.7694 18.208 13.6426C17.5506 12.8975 16.9152 12.0606 16.3657 11.2181ZM16.1062 6.55606C15.7235 6.55606 15.7036 6.69953 15.6814 6.85109C15.6251 7.2493 15.7651 7.81565 16.0415 8.46862C16.2852 7.30504 16.2357 6.68948 16.1172 6.55606C16.1136 6.55606 16.1099 6.55606 16.1062 6.55606Z" fill="#F82D00"/>
</svg>
