<svg width="13" height="17" viewBox="0 0 13 17" fill="none" xmlns="http://www.w3.org/2000/svg">
<path d="M0.26928 9.09434L12.3404 16.941C12.5326 17.064 12.762 16.9907 12.8957 16.758C13.0303 16.5252 13.035 16.1943 12.9068 15.955L8.93729 8.5006L12.9068 1.04623C13.035 0.806902 13.0303 0.474724 12.8966 0.243246C12.8065 0.0850048 12.6719 -1.87867e-06 12.5354 -1.86673e-06C12.4695 -1.86097e-06 12.4036 0.0196152 12.3413 0.0601559L0.270209 7.90687C0.104926 8.01411 1.14201e-06 8.24558 1.16431e-06 8.5006C1.1866e-06 8.75562 0.104927 8.9871 0.26928 9.09434Z" fill="#FBFBFB"/>
</svg>
