<svg width="43" height="59" viewBox="0 0 43 59" fill="none" xmlns="http://www.w3.org/2000/svg">
<path d="M41.7402 10.1621H32.166V2.6875C32.166 1.99177 31.602 1.42773 30.9062 1.42773H1.25977C0.564039 1.42773 0 1.99177 0 2.6875V35.2734C0 38.7466 2.82565 41.5723 6.29883 41.5723H36.7012C40.1743 41.5723 43 38.7466 43 35.2734V11.4219C43 10.7261 42.436 10.1621 41.7402 10.1621ZM6.29883 39.0527C4.21492 39.0527 2.51953 37.3573 2.51953 35.2734V3.94727H29.6465C29.6465 37.2442 29.6306 35.393 29.6754 35.8678C29.7849 37.0357 30.2204 38.137 30.9092 39.0527H6.29883ZM40.4805 35.2734C40.4805 37.3573 38.7851 39.0527 36.7012 39.0527C36.4185 39.0527 36.2229 39.0527 35.9453 39.0527C33.8614 39.0527 32.166 37.3573 32.166 35.2734V12.6816H40.4805V35.2734Z" fill="white"/>
<path d="M25.5312 7.47461H6.71875C6.02302 7.47461 5.45898 8.03865 5.45898 8.73438C5.45898 9.4301 6.02302 9.99414 6.71875 9.99414H25.5312C26.227 9.99414 26.791 9.4301 26.791 8.73438C26.791 8.03865 26.227 7.47461 25.5312 7.47461Z" fill="white"/>
<path d="M25.5312 12.8496H6.71875C6.02302 12.8496 5.45898 13.4136 5.45898 14.1094C5.45898 14.8051 6.02302 15.3691 6.71875 15.3691H25.5312C26.227 15.3691 26.791 14.8051 26.791 14.1094C26.791 13.4136 26.227 12.8496 25.5312 12.8496Z" fill="white"/>
<path d="M25.5312 33.0059H6.71875C6.02302 33.0059 5.45898 33.5699 5.45898 34.2656C5.45898 34.9614 6.02302 35.5254 6.71875 35.5254H25.5312C26.227 35.5254 26.791 34.9614 26.791 34.2656C26.791 33.5699 26.227 33.0059 25.5312 33.0059Z" fill="white"/>
<path d="M25.5312 18.2246H16.125C15.4293 18.2246 14.8652 18.7886 14.8652 19.4844V28.8906C14.8652 29.5864 15.4293 30.1504 16.125 30.1504H25.5312C26.227 30.1504 26.791 29.5864 26.791 28.8906V19.4844C26.791 18.7886 26.227 18.2246 25.5312 18.2246ZM24.2715 27.6309H17.3848V20.7441H24.2715V27.6309Z" fill="white"/>
<path d="M6.71875 22.7598H10.75C11.4457 22.7598 12.0098 22.1957 12.0098 21.5C12.0098 20.8043 11.4457 20.2402 10.75 20.2402H6.71875C6.02302 20.2402 5.45898 20.8043 5.45898 21.5C5.45898 22.1957 6.02302 22.7598 6.71875 22.7598Z" fill="white"/>
<path d="M6.71875 28.1348H10.75C11.4457 28.1348 12.0098 27.5707 12.0098 26.875C12.0098 26.1793 11.4457 25.6152 10.75 25.6152H6.71875C6.02302 25.6152 5.45898 26.1793 5.45898 26.875C5.45898 27.5707 6.02302 28.1348 6.71875 28.1348Z" fill="white"/>
<path d="M4.54541 56.7178H8.74121V58H2.93945V48.7578H4.54541V56.7178Z" fill="white"/>
<path d="M13.9272 58C13.8595 57.8688 13.8003 57.6551 13.7495 57.3589C13.2586 57.8709 12.6577 58.127 11.9468 58.127C11.257 58.127 10.6942 57.9302 10.2583 57.5366C9.82243 57.1431 9.60449 56.6564 9.60449 56.0767C9.60449 55.3446 9.87533 54.7839 10.417 54.3945C10.9629 54.001 11.7415 53.8042 12.7529 53.8042H13.6987V53.3535C13.6987 52.998 13.5993 52.7145 13.4004 52.5029C13.2015 52.2871 12.8989 52.1792 12.4927 52.1792C12.1414 52.1792 11.8537 52.2681 11.6294 52.4458C11.4051 52.6193 11.293 52.8415 11.293 53.1123H9.75049C9.75049 52.7357 9.87533 52.3844 10.125 52.0586C10.3747 51.7285 10.7132 51.4704 11.1406 51.2842C11.5723 51.098 12.0526 51.0049 12.5815 51.0049C13.3856 51.0049 14.0267 51.208 14.5049 51.6143C14.9831 52.0163 15.2285 52.5833 15.2412 53.3154V56.4131C15.2412 57.0309 15.328 57.5239 15.5015 57.8921V58H13.9272ZM12.2324 56.8892C12.5371 56.8892 12.8228 56.8151 13.0894 56.667C13.3602 56.5189 13.5633 56.32 13.6987 56.0703V54.7754H12.8672C12.2959 54.7754 11.8664 54.8748 11.5786 55.0737C11.2909 55.2726 11.147 55.554 11.147 55.918C11.147 56.2142 11.2443 56.4512 11.439 56.6289C11.6379 56.8024 11.9023 56.8892 12.2324 56.8892Z" fill="white"/>
<path d="M18.7896 49.4624V51.1318H20.002V52.2744H18.7896V56.1084C18.7896 56.3708 18.8403 56.5612 18.9419 56.6797C19.0477 56.7939 19.2339 56.8511 19.5005 56.8511C19.6782 56.8511 19.8581 56.8299 20.04 56.7876V57.981C19.6888 58.0783 19.3503 58.127 19.0244 58.127C17.8395 58.127 17.2471 57.4731 17.2471 56.1655V52.2744H16.1172V51.1318H17.2471V49.4624H18.7896Z" fill="white"/>
<path d="M24.2104 58.127C23.2329 58.127 22.4395 57.8201 21.8301 57.2065C21.2249 56.5887 20.9224 55.7677 20.9224 54.7437V54.5532C20.9224 53.8677 21.0535 53.2562 21.3159 52.7188C21.5825 52.1771 21.9549 51.756 22.4331 51.4556C22.9113 51.1551 23.4445 51.0049 24.0327 51.0049C24.9679 51.0049 25.6895 51.3032 26.1973 51.8999C26.7093 52.4966 26.9653 53.3408 26.9653 54.4326V55.0547H22.4775C22.5241 55.6217 22.7124 56.0703 23.0425 56.4004C23.3768 56.7305 23.7957 56.8955 24.2993 56.8955C25.006 56.8955 25.5815 56.6099 26.0259 56.0386L26.8574 56.832C26.5824 57.2425 26.2142 57.562 25.7529 57.7905C25.2959 58.0148 24.7817 58.127 24.2104 58.127ZM24.0264 52.2427C23.6032 52.2427 23.2604 52.3908 22.998 52.687C22.7399 52.9832 22.5749 53.3958 22.5029 53.9248H25.4419V53.8105C25.408 53.2943 25.2705 52.9049 25.0293 52.6426C24.7881 52.376 24.4538 52.2427 24.0264 52.2427Z" fill="white"/>
<path d="M32.0181 56.1338C32.0181 55.8587 31.9038 55.6493 31.6753 55.5054C31.451 55.3615 31.0765 55.2345 30.5518 55.1245C30.027 55.0145 29.589 54.8748 29.2378 54.7056C28.4676 54.3332 28.0825 53.7936 28.0825 53.0869C28.0825 52.4945 28.3322 51.9993 28.8315 51.6016C29.3309 51.2038 29.9657 51.0049 30.7358 51.0049C31.5568 51.0049 32.2191 51.208 32.7227 51.6143C33.2305 52.0205 33.4844 52.5474 33.4844 53.1948H31.9419C31.9419 52.8986 31.8319 52.6532 31.6118 52.4585C31.3918 52.2596 31.0998 52.1602 30.7358 52.1602C30.3973 52.1602 30.1201 52.2384 29.9043 52.395C29.6927 52.5516 29.5869 52.7611 29.5869 53.0234C29.5869 53.2604 29.6864 53.4445 29.8853 53.5757C30.0841 53.7069 30.4862 53.8402 31.0913 53.9756C31.6965 54.1068 32.1704 54.2655 32.5132 54.4517C32.8602 54.6336 33.1162 54.8537 33.2812 55.1118C33.4505 55.37 33.5352 55.6831 33.5352 56.0513C33.5352 56.6691 33.2791 57.1706 32.7671 57.5557C32.255 57.9365 31.5843 58.127 30.7549 58.127C30.1921 58.127 29.6906 58.0254 29.2505 57.8223C28.8104 57.6191 28.4676 57.3398 28.2222 56.9844C27.9767 56.6289 27.854 56.2459 27.854 55.8354H29.3521C29.3732 56.1994 29.5107 56.4808 29.7646 56.6797C30.0186 56.8743 30.355 56.9717 30.7739 56.9717C31.1802 56.9717 31.4891 56.8955 31.7007 56.7432C31.9123 56.5866 32.0181 56.3835 32.0181 56.1338Z" fill="white"/>
<path d="M36.8169 49.4624V51.1318H38.0293V52.2744H36.8169V56.1084C36.8169 56.3708 36.8677 56.5612 36.9692 56.6797C37.075 56.7939 37.2612 56.8511 37.5278 56.8511C37.7056 56.8511 37.8854 56.8299 38.0674 56.7876V57.981C37.7161 58.0783 37.3776 58.127 37.0518 58.127C35.8669 58.127 35.2744 57.4731 35.2744 56.1655V52.2744H34.1445V51.1318H35.2744V49.4624H36.8169Z" fill="white"/>
</svg>
